# xmcd CD database file
#
# Track frame offsets:
#	180
#	14536
#	32080
#	45643
#	78236
#	109481
#	138201
#	143509
#	149910
#	171332
#	181379
#	196314
#
# Disc length: 2842 seconds
#
# Revision: 2
# Processed by: cddbd v1.4b41PL1 Copyright (c) Steve Scherf et al.
# Submitted via: Feurio! 1.52 - http://www.feurio.com
#
DISCID=ac0b180c
DTITLE=UBC Singers - UBC Singers 1993-94
DYEAR=1900
DGENRE=
TTITLE0=Cantate Domino
TTITLE1=Crucifixus a 8
TTITLE2=Meine Scweste Liebe Braut
TTITLE3=Missa Brevis
TTITLE4=Schaffe In mir Gotte ein rein Herz
TTITLE5=Laudate Domino
TTITLE6=Il est bel et bon
TTITLE7=Ola o che bon ecco
TTITLE8=Zefiro torna
TTITLE9=I got shoes
TTITLE10=My Lord what a mornin
TTITLE11=Le me fly
EXTD=James Fankhauser, Conductor
EXTT0=
EXTT1=
EXTT2=
EXTT3=
EXTT4=
EXTT5=
EXTT6=
EXTT7=
EXTT8=
EXTT9=
EXTT10=
EXTT11=
PLAYORDER=
